<svg id="Language_Icon" data-name="Language Icon" xmlns="http://www.w3.org/2000/svg" width="32" height="32" viewBox="0 0 32 32">
  <g id="Language_Icon-2" data-name="Language Icon">
    <rect id="Icon-Frame" width="32" height="32" fill="#043055"/>
    <path id="Language_Icon-3" data-name="Language Icon" d="M268.67,57.007A2.608,2.608,0,0,0,266.2,55.2h-1.3V51.3a1.3,1.3,0,0,0-1.3-1.3h-7.8V47.4h2.6a1.3,1.3,0,0,0,1.3-1.3h0V43.5h2.6a2.6,2.6,0,0,0,2.6-2.6h0v-.533a10.377,10.377,0,0,1,3.77,16.64m-8.97,3.3a10.351,10.351,0,0,1-8.827-12.635L257.1,53.9v1.3a2.6,2.6,0,0,0,2.6,2.6h0M261,37a13,13,0,1,0,13,13A13,13,0,0,0,261,37Z" transform="translate(-245 -34)" fill="#fff"/>
  </g>
</svg>
