<svg xmlns="http://www.w3.org/2000/svg" width="28" height="28" viewBox="0 0 28 28">
  <path id="Contact-Icon" d="M7.148,2h19.7A4.148,4.148,0,0,1,31,6.148V19.63a4.148,4.148,0,0,1-4.148,4.148H19.581L12.333,30l-.044-6.222H7.148A4.148,4.148,0,0,1,3,19.63V6.148A4.148,4.148,0,0,1,7.148,2ZM17.285,15.039a1.525,1.525,0,1,1,1.492-1.556v.036a1.51,1.51,0,0,1-1.493,1.519Zm6.222,0A1.525,1.525,0,1,1,25,13.483v.036a1.51,1.51,0,0,1-1.493,1.519Zm-12.444,0a1.525,1.525,0,1,1,1.491-1.556v.036a1.51,1.51,0,0,1-1.492,1.519Z" transform="translate(-3 -2)" fill="#fff"/>
</svg>
